<svg width="45" height="45" viewBox="0 0 45 45" fill="none" xmlns="http://www.w3.org/2000/svg">
<path d="M23.5312 38.6062C22.05 38.6062 20.4188 38.0812 18.7875 37.05L13.3125 33.6187C12.9375 33.3937 12.5063 33.2625 12.075 33.2625H9.375C4.8375 33.2625 2.34375 30.7687 2.34375 26.2312V18.7312C2.34375 14.1937 4.8375 11.7 9.375 11.7H12.0562C12.4875 11.7 12.9187 11.5687 13.2938 11.3437L18.7688 7.9125C21.5063 6.20625 24.1688 5.8875 26.2688 7.05C28.3687 8.2125 29.5125 10.6312 29.5125 13.875V31.0687C29.5125 34.2937 28.35 36.7312 26.2688 37.8937C25.4438 38.3812 24.5063 38.6062 23.5312 38.6062ZM9.375 14.5312C6.4125 14.5312 5.15625 15.7875 5.15625 18.75V26.25C5.15625 29.2125 6.4125 30.4687 9.375 30.4687H12.0562C13.0312 30.4687 13.9688 30.7312 14.7937 31.2562L20.2688 34.6875C22.0688 35.8125 23.775 36.1125 24.9188 35.475C26.0625 34.8375 26.7188 33.2437 26.7188 31.125V13.8937C26.7188 11.7562 26.0625 10.1625 24.9188 9.54375C23.775 8.90625 22.0688 9.1875 20.2688 10.3312L14.775 13.7437C13.9688 14.2687 13.0125 14.5312 12.0562 14.5312H9.375Z" fill="#FF5037"/>
<path d="M33.75 31.4062C33.45 31.4062 33.1688 31.3125 32.9063 31.125C32.2875 30.6562 32.1563 29.775 32.625 29.1563C35.5688 25.2375 35.5688 19.7625 32.625 15.8438C32.1563 15.225 32.2875 14.3438 32.9063 13.875C33.525 13.4063 34.4063 13.5375 34.875 14.1563C38.55 19.0688 38.55 25.9313 34.875 30.8438C34.5938 31.2188 34.1813 31.4062 33.75 31.4062Z" fill="#FF5037"/>
<path d="M37.1812 36.0938C36.8812 36.0938 36.5999 36 36.3374 35.8125C35.7187 35.3438 35.5874 34.4625 36.0562 33.8437C41.0624 27.1687 41.0624 17.8313 36.0562 11.1562C35.5874 10.5375 35.7187 9.65625 36.3374 9.1875C36.9562 8.71875 37.8374 8.85 38.3062 9.46875C44.0624 17.1375 44.0624 27.8625 38.3062 35.5313C38.0437 35.9063 37.6124 36.0938 37.1812 36.0938Z" fill="#FF5037"/>
</svg>
