<svg width="45" height="45" viewBox="0 0 45 45" fill="none" xmlns="http://www.w3.org/2000/svg">
<path d="M23.5312 38.6061C22.05 38.6061 20.4188 38.0811 18.7875 37.0499L13.3125 33.6186C12.9375 33.3936 12.5063 33.2624 12.075 33.2624H9.375C4.8375 33.2624 2.34375 30.7686 2.34375 26.2311V18.7311C2.34375 14.1936 4.8375 11.6999 9.375 11.6999H12.0562C12.4875 11.6999 12.9187 11.5686 13.2938 11.3436L18.7688 7.91239C21.5063 6.20614 24.1688 5.88739 26.2688 7.04989C28.3687 8.21239 29.5125 10.6311 29.5125 13.8749V31.0686C29.5125 34.2936 28.35 36.7311 26.2688 37.8936C25.4438 38.3811 24.5063 38.6061 23.5312 38.6061ZM9.375 14.5311C6.4125 14.5311 5.15625 15.7874 5.15625 18.7499V26.2499C5.15625 29.2124 6.4125 30.4686 9.375 30.4686H12.0562C13.0312 30.4686 13.9688 30.7311 14.7937 31.2561L20.2688 34.6874C22.0688 35.8124 23.775 36.1124 24.9188 35.4749C26.0625 34.8374 26.7188 33.2436 26.7188 31.1249V13.8936C26.7188 11.7561 26.0625 10.1624 24.9188 9.54364C23.775 8.90614 22.0688 9.18739 20.2688 10.3311L14.775 13.7436C13.9688 14.2686 13.0125 14.5311 12.0562 14.5311H9.375Z" fill="black"/>
<path d="M33.75 31.4063C33.45 31.4063 33.1688 31.3125 32.9063 31.125C32.2875 30.6563 32.1563 29.775 32.625 29.1563C35.5688 25.2375 35.5688 19.7625 32.625 15.8438C32.1563 15.225 32.2875 14.3438 32.9063 13.875C33.525 13.4063 34.4063 13.5375 34.875 14.1563C38.55 19.0688 38.55 25.9313 34.875 30.8438C34.5938 31.2188 34.1813 31.4063 33.75 31.4063Z" fill="black"/>
<path d="M37.1812 36.0938C36.8812 36.0938 36.5999 36 36.3374 35.8125C35.7187 35.3438 35.5874 34.4625 36.0562 33.8438C41.0624 27.1688 41.0624 17.8313 36.0562 11.1563C35.5874 10.5375 35.7187 9.65627 36.3374 9.18752C36.9562 8.71877 37.8374 8.85002 38.3062 9.46877C44.0624 17.1375 44.0624 27.8625 38.3062 35.5313C38.0437 35.9063 37.6124 36.0938 37.1812 36.0938Z" fill="black"/>
</svg>
