<svg width="45" height="45" viewBox="0 0 45 45" fill="none" xmlns="http://www.w3.org/2000/svg">
<path d="M31.875 40.7812H13.125C4.85625 40.7812 2.34375 38.2687 2.34375 30V15C2.34375 6.73125 4.85625 4.21875 13.125 4.21875H31.875C40.1437 4.21875 42.6562 6.73125 42.6562 15V30C42.6562 38.2687 40.1437 40.7812 31.875 40.7812ZM13.125 7.03125C6.4125 7.03125 5.15625 8.30625 5.15625 15V30C5.15625 36.6937 6.4125 37.9688 13.125 37.9688H31.875C38.5875 37.9688 39.8438 36.6937 39.8438 30V15C39.8438 8.30625 38.5875 7.03125 31.875 7.03125H13.125Z" fill="#FF5037"/>
<path d="M35.625 16.4062H26.25C25.4812 16.4062 24.8438 15.7687 24.8438 15C24.8438 14.2312 25.4812 13.5938 26.25 13.5938H35.625C36.3938 13.5938 37.0312 14.2312 37.0312 15C37.0312 15.7687 36.3938 16.4062 35.625 16.4062Z" fill="#FF5037"/>
<path d="M35.625 23.9062H28.125C27.3562 23.9062 26.7188 23.2687 26.7188 22.5C26.7188 21.7312 27.3562 21.0938 28.125 21.0938H35.625C36.3938 21.0938 37.0312 21.7312 37.0312 22.5C37.0312 23.2687 36.3938 23.9062 35.625 23.9062Z" fill="#FF5037"/>
<path d="M35.625 31.4062H31.875C31.1062 31.4062 30.4688 30.7687 30.4688 30C30.4688 29.2312 31.1062 28.5938 31.875 28.5938H35.625C36.3938 28.5938 37.0312 29.2312 37.0312 30C37.0312 30.7687 36.3938 31.4062 35.625 31.4062Z" fill="#FF5037"/>
<path d="M15.9375 22.5751C13.2937 22.5751 11.1375 20.4188 11.1375 17.7751C11.1375 15.1313 13.2937 12.9751 15.9375 12.9751C18.5812 12.9751 20.7375 15.1313 20.7375 17.7751C20.7375 20.4188 18.5812 22.5751 15.9375 22.5751ZM15.9375 15.7876C14.85 15.7876 13.95 16.6876 13.95 17.7751C13.95 18.8626 14.85 19.7626 15.9375 19.7626C17.025 19.7626 17.925 18.8626 17.925 17.7751C17.925 16.6876 17.025 15.7876 15.9375 15.7876Z" fill="#FF5037"/>
<path d="M22.5001 32.025C21.7876 32.025 21.1688 31.4813 21.0938 30.75C20.8876 28.725 19.2563 27.0938 17.2126 26.9063C16.3501 26.8313 15.4876 26.8313 14.6251 26.9063C12.5813 27.0938 10.9501 28.7063 10.7438 30.75C10.6688 31.5188 9.97507 32.1 9.20632 32.0063C8.43757 31.9313 7.87507 31.2375 7.95007 30.4688C8.28757 27.0938 10.9688 24.4125 14.3626 24.1125C15.3938 24.0188 16.4438 24.0188 17.4751 24.1125C20.8501 24.4313 23.5501 27.1125 23.8876 30.4688C23.9626 31.2375 23.4001 31.9313 22.6313 32.0063C22.5938 32.025 22.5376 32.025 22.5001 32.025Z" fill="#FF5037"/>
</svg>
