<svg width="45" height="45" viewBox="0 0 45 45" fill="none" xmlns="http://www.w3.org/2000/svg">
<path d="M30.7123 42.6562H6.07474C4.29349 42.6562 2.6435 41.8313 1.57475 40.3876C0.48725 38.9251 0.168516 37.0875 0.712266 35.3437L8.606 9.9749C9.3185 7.6124 11.4935 5.99991 13.9685 5.99991H37.031C39.2998 5.99991 41.3435 7.35007 42.206 9.45007C42.6748 10.5376 42.7685 11.7751 42.4873 12.9939L36.1685 38.3624C35.5685 40.8937 33.3185 42.6562 30.7123 42.6562ZM13.9872 8.83118C12.7685 8.83118 11.6623 9.63754 11.306 10.8188L3.41227 36.1876C3.14977 37.0688 3.29975 37.9876 3.86225 38.7376C4.38725 39.4501 5.21226 39.8625 6.09351 39.8625H30.731C32.0248 39.8625 33.1497 38.9812 33.4497 37.725L39.7685 12.3374C39.9185 11.7187 39.881 11.1 39.6373 10.5563C39.1873 9.48751 38.1935 8.81241 37.0498 8.81241H13.9872V8.83118Z" fill="#292D32"/>
<path d="M38.9625 42.6562H30C29.2312 42.6562 28.5938 42.0187 28.5938 41.2499C28.5938 40.4812 29.2312 39.8437 30 39.8437H38.9625C39.7312 39.8437 40.4438 39.525 40.9688 38.9625C41.4938 38.4 41.7562 37.65 41.7 36.8813L39.8438 11.3438C39.7875 10.575 40.3688 9.89994 41.1375 9.84369C41.9063 9.80619 42.5812 10.3686 42.6375 11.1373L44.4938 36.675C44.6063 38.2125 44.0625 39.75 43.0125 40.875C41.9813 42.0188 40.5 42.6562 38.9625 42.6562Z" fill="#292D32"/>
<path d="M18.1496 13.3687C18.0371 13.3687 17.9246 13.3499 17.8121 13.3311C17.0621 13.1436 16.5933 12.3936 16.7808 11.6248L18.7308 3.52492C18.9183 2.77492 19.6683 2.30608 20.4371 2.49358C21.1871 2.68108 21.6558 3.43114 21.4683 4.19989L19.5183 12.3C19.3683 12.9375 18.7871 13.3687 18.1496 13.3687Z" fill="#292D32"/>
<path d="M30.7124 13.3875C30.6187 13.3875 30.5062 13.3874 30.4124 13.3499C29.6624 13.1812 29.175 12.4312 29.325 11.6812L31.0874 3.54373C31.2562 2.77498 32.0062 2.30631 32.7562 2.45631C33.5062 2.60631 33.9937 3.37486 33.8437 4.12486L32.0812 12.2625C31.9499 12.9375 31.3687 13.3875 30.7124 13.3875Z" fill="#292D32"/>
<path d="M29.438 23.9062H14.438C13.6692 23.9062 13.0317 23.2687 13.0317 22.5C13.0317 21.7312 13.6692 21.0938 14.438 21.0938H29.438C30.2067 21.0938 30.8442 21.7312 30.8442 22.5C30.8442 23.2687 30.2067 23.9062 29.438 23.9062Z" fill="#292D32"/>
<path d="M27.563 31.4062H12.563C11.7942 31.4062 11.1567 30.7687 11.1567 30C11.1567 29.2312 11.7942 28.5938 12.563 28.5938H27.563C28.3317 28.5938 28.9692 29.2312 28.9692 30C28.9692 30.7687 28.3317 31.4062 27.563 31.4062Z" fill="#292D32"/>
</svg>
