<svg width="45" height="45" viewBox="0 0 45 45" fill="none" xmlns="http://www.w3.org/2000/svg">
<path d="M30.7123 42.6563H6.07474C4.29349 42.6563 2.6435 41.8314 1.57475 40.3877C0.48725 38.9252 0.168516 37.0875 0.712266 35.3438L8.606 9.97499C9.3185 7.61249 11.4935 6 13.9685 6H37.031C39.2998 6 41.3435 7.35016 42.206 9.45016C42.6748 10.5377 42.7685 11.7752 42.4873 12.9939L36.1685 38.3625C35.5685 40.8938 33.3185 42.6563 30.7123 42.6563ZM13.9872 8.83127C12.7685 8.83127 11.6623 9.63763 11.306 10.8189L3.41227 36.1877C3.14977 37.0689 3.29975 37.9877 3.86225 38.7377C4.38725 39.4502 5.21226 39.8626 6.09351 39.8626H30.731C32.0248 39.8626 33.1497 38.9813 33.4497 37.7251L39.7685 12.3375C39.9185 11.7188 39.881 11.1001 39.6373 10.5564C39.1873 9.4876 38.1935 8.8125 37.0498 8.8125H13.9872V8.83127Z" fill="#FF5037"/>
<path d="M38.9625 42.6561H30C29.2312 42.6561 28.5938 42.0186 28.5938 41.2498C28.5938 40.4811 29.2312 39.8436 30 39.8436H38.9625C39.7312 39.8436 40.4438 39.5249 40.9688 38.9624C41.4938 38.3999 41.7562 37.6499 41.7 36.8811L39.8438 11.3437C39.7875 10.5749 40.3688 9.89982 41.1375 9.84357C41.9063 9.80607 42.5812 10.3685 42.6375 11.1372L44.4938 36.6749C44.6063 38.2124 44.0625 39.7499 43.0125 40.8749C41.9813 42.0187 40.5 42.6561 38.9625 42.6561Z" fill="#FF5037"/>
<path d="M18.1496 13.3686C18.0371 13.3686 17.9246 13.3498 17.8121 13.331C17.0621 13.1435 16.5933 12.3935 16.7808 11.6247L18.7308 3.52483C18.9183 2.77483 19.6683 2.30599 20.4371 2.49349C21.1871 2.68099 21.6558 3.43105 21.4683 4.1998L19.5183 12.2999C19.3683 12.9374 18.7871 13.3686 18.1496 13.3686Z" fill="#FF5037"/>
<path d="M30.7124 13.3875C30.6187 13.3875 30.5062 13.3875 30.4124 13.35C29.6624 13.1812 29.175 12.4312 29.325 11.6812L31.0874 3.54376C31.2562 2.77501 32.0062 2.30634 32.7562 2.45634C33.5062 2.60634 33.9937 3.37489 33.8437 4.12489L32.0812 12.2626C31.9499 12.9376 31.3687 13.3875 30.7124 13.3875Z" fill="#FF5037"/>
<path d="M29.438 23.9062H14.438C13.6692 23.9062 13.0317 23.2687 13.0317 22.5C13.0317 21.7312 13.6692 21.0938 14.438 21.0938H29.438C30.2067 21.0938 30.8442 21.7312 30.8442 22.5C30.8442 23.2687 30.2067 23.9062 29.438 23.9062Z" fill="#FF5037"/>
<path d="M27.563 31.4062H12.563C11.7942 31.4062 11.1567 30.7687 11.1567 30C11.1567 29.2312 11.7942 28.5938 12.563 28.5938H27.563C28.3317 28.5938 28.9692 29.2312 28.9692 30C28.9692 30.7687 28.3317 31.4062 27.563 31.4062Z" fill="#FF5037"/>
</svg>
