<svg width="133" height="133" viewBox="0 0 133 133" fill="none" xmlns="http://www.w3.org/2000/svg">
<circle cx="66.5" cy="66.5" r="66.5" fill="#D9D9D9"/>
<path d="M44.5625 63.1094C44.5625 65.5547 46.1797 68.0781 48.1562 69.0469L47.4062 70.0312C45.875 69.2344 44.5938 67.5859 43.9766 65.6562C43.3594 67.7031 42.0469 69.4609 40.4844 70.2969L39.7031 69.3125C41.7344 68.3125 43.3438 65.6484 43.3594 63.1094V60.5781H44.5625V63.1094ZM49.4375 73.2656V59.375H50.6562V65.0156H52.9844V66.0781H50.6562V73.2656H49.4375ZM58.7344 62.3594C58.7422 64.2344 60.2188 65.9219 62.2969 66.5781L61.6719 67.5625C60.0547 67.0078 58.7734 65.8672 58.1406 64.4062C57.5391 65.9844 56.2344 67.2344 54.5781 67.8438L53.9375 66.8594C56.0234 66.1328 57.4922 64.3281 57.5 62.3594V61.5469H54.25V60.5469H61.9375V61.5469H58.7344V62.3594ZM56.2344 72.9688V68.6094H57.4531V71.9375H65.6406V72.9688H56.2344ZM63.9844 69.5781V59.3906H65.2031V69.5781H63.9844ZM72.3125 62C72.3125 63.9375 73.7188 65.7656 75.75 66.5L75.0625 67.4531C73.5391 66.8516 72.3203 65.6484 71.7266 64.1328C71.1406 65.8125 69.875 67.1406 68.2344 67.7969L67.5781 66.7969C69.6641 66.0312 71.1016 64.0859 71.1094 61.9531V60.2344H72.3125V62ZM70.0938 72.9688V68.6094H71.3281V71.9375H79.3906V72.9688H70.0938ZM74.75 63.6875V62.6562H77.8438V59.3906H79.0781V69.7969H77.8438V63.6875H74.75ZM87.4062 60.3906V61.4219H83.1875V63.1562H87.25V64.125H83.1875V66.0469C85.2109 66.0391 86.4766 65.9609 87.9688 65.6719L88.0938 66.6875C86.4609 67.0078 85.1484 67.0703 82.8906 67.0781H82.0156V60.3906H87.4062ZM83.8281 69.5312V68.5312H93.1875V73.2656H91.9844V69.5312H83.8281ZM88.9219 67.7188V59.6562H90.0625V63.0156H92.0156V59.3906H93.1875V67.8125H92.0156V64.0156H90.0625V67.7188H88.9219Z" fill="black"/>
</svg>
